<svg xmlns="http://www.w3.org/2000/svg" viewBox="0 0 1200 675" fill="none">
  <defs>
    <linearGradient id="vltGoldGrad" x1="0%" y1="0%" x2="100%" y2="100%">
      <stop offset="0%" stop-color="#FDE68A"/>
      <stop offset="40%" stop-color="#F59E0B"/>
      <stop offset="70%" stop-color="#D97706"/>
      <stop offset="100%" stop-color="#78350F"/>
    </linearGradient>
    <linearGradient id="vltPurpleGrad" x1="0%" y1="0%" x2="100%" y2="100%">
      <stop offset="0%" stop-color="#E879F9"/>
      <stop offset="50%" stop-color="#A855F7"/>
      <stop offset="100%" stop-color="#6B21A8"/>
    </linearGradient>
    <filter id="vaultGlow" x="-5%" y="-5%" width="110%" height="110%">
      <feGaussianBlur stdDeviation="5" result="b"/>
      <feMerge><feMergeNode in="b"/><feMergeNode in="SourceGraphic"/></feMerge>
    </filter>
  </defs>
  <!-- Outer Gold Border -->
  <rect x="6" y="6" width="1188" height="663" rx="24" stroke="url(#vltGoldGrad)" stroke-width="4.5" fill="none" filter="url(#vaultGlow)"/>
  <rect x="14" y="14" width="1172" height="647" rx="18" stroke="url(#vltPurpleGrad)" stroke-width="2.5" fill="none"/>
  
  <!-- Ornate Crystalline Corner Crystals (Top-Left) -->
  <g transform="translate(0, 0)">
    <polygon points="6,90 25,45 45,25 90,6 30,6 6,30" fill="url(#vltPurpleGrad)"/>
    <polygon points="20,20 40,30 30,40" fill="#FDE68A"/>
    <polygon points="4,40 18,18 40,4" stroke="#E879F9" stroke-width="2" fill="none"/>
  </g>
  <!-- Top-Right -->
  <g transform="translate(1200, 0) scale(-1, 1)">
    <polygon points="6,90 25,45 45,25 90,6 30,6 6,30" fill="url(#vltPurpleGrad)"/>
    <polygon points="20,20 40,30 30,40" fill="#FDE68A"/>
    <polygon points="4,40 18,18 40,4" stroke="#E879F9" stroke-width="2" fill="none"/>
  </g>
  <!-- Bottom-Left -->
  <g transform="translate(0, 675) scale(1, -1)">
    <polygon points="6,90 25,45 45,25 90,6 30,6 6,30" fill="url(#vltGoldGrad)"/>
    <polygon points="20,20 40,30 30,40" fill="#E879F9"/>
  </g>
  <!-- Bottom-Right -->
  <g transform="translate(1200, 675) scale(-1, -1)">
    <polygon points="6,90 25,45 45,25 90,6 30,6 6,30" fill="url(#vltGoldGrad)"/>
    <polygon points="20,20 40,30 30,40" fill="#E879F9"/>
  </g>
</svg>